<?xml version="1.0" encoding="utf-8"?>
<!-- Generator: Adobe Illustrator 22.1.0, SVG Export Plug-In . SVG Version: 6.00 Build 0)  -->
<svg version="1.1" id="Layer_1" xmlns="http://www.w3.org/2000/svg" xmlns:xlink="http://www.w3.org/1999/xlink" x="0px" y="0px"
	 viewBox="0 0 92.8 92.8" style="enable-background:new 0 0 92.8 92.8;" xml:space="preserve">
<style type="text/css">
	.st0{fill:#FFFFFF;}
</style>
<g>
	<path class="st0" d="M46.4,49.8v24c0,0.9-0.3,1.7-1,2.4c-0.7,0.7-1.5,1-2.4,1c-0.9,0-1.7-0.3-2.4-1l-7.7-7.7L15.1,86.3
		c-0.4,0.4-0.8,0.5-1.2,0.5c-0.5,0-0.9-0.2-1.2-0.5l-6.1-6.1C6.2,79.8,6,79.4,6,78.9c0-0.5,0.2-0.9,0.5-1.2l17.8-17.8l-7.7-7.7
		c-0.7-0.7-1-1.5-1-2.4s0.3-1.7,1-2.4c0.7-0.7,1.5-1,2.4-1h24c0.9,0,1.7,0.3,2.4,1C46.1,48.1,46.4,48.9,46.4,49.8L46.4,49.8z
		 M86.8,13.9c0,0.5-0.2,0.9-0.5,1.2L68.5,32.9l7.7,7.7c0.7,0.7,1,1.5,1,2.4s-0.3,1.7-1,2.4c-0.7,0.7-1.5,1-2.4,1h-24
		c-0.9,0-1.7-0.3-2.4-1c-0.7-0.7-1-1.5-1-2.4V19c0-0.9,0.3-1.7,1-2.4c0.7-0.7,1.5-1,2.4-1c0.9,0,1.7,0.3,2.4,1l7.7,7.7L77.7,6.5
		C78.1,6.2,78.5,6,79,6s0.9,0.2,1.2,0.5l6.1,6.1C86.7,13,86.8,13.4,86.8,13.9L86.8,13.9z"/>
</g>
</svg>
